# xmcd CD database file
#
# Track frame offsets:
#	150
#	13025
#	31607
#	65975
#	87225
#	111672
#	130317
#	166612
#	177792
#	215240
#	244222
#	270602
#	294587
#	314470
#
# Disc length: 4630 seconds
#
# Revision: 1
# Processed by: cddbd v1.5.2PL0 Copyright (c) Steve Scherf et al.
# Submitted via: CDex 2.12
#
DISCID=d012140e
DTITLE=Various Artist - Blues Guitar Masters CD2
DYEAR=1997
DGENRE=Blues
TTITLE0=Fleetwood Mac feat. Peter Green - Man of The World
TTITLE1=Mississippi Fred McDowell - Someday (Live)
TTITLE2=B.B. King - Outside Help (live)
TTITLE3=Calvin Leavy - Cummins Prison Farm
TTITLE4=Albert King - Born Under a Bad Sign
TTITLE5=Robert Cray - The Score
TTITLE6=Jimi Hendrix - Red House (Live)
TTITLE7=Johnny Winter - Gangster of Love
TTITLE8=Freddy King - Red Light, Green Light (Live)
TTITLE9=Luther Allison - You Don't Love Me
TTITLE10=Clarence 'Gatemouth' Brown - Frosty (Live)
TTITLE11=John Mayall's Bluesbreakers feat. Walter Trout - One Life To Live
TTITLE12=Albert Collins - Too Many Dirty Dishes (Live)
TTITLE13=Roy Buchanan - Blues in E (Live)
EXTD=YEAR: 1997
EXTT0=
EXTT1=
EXTT2=
EXTT3=
EXTT4=
EXTT5=
EXTT6=
EXTT7=
EXTT8=
EXTT9=
EXTT10=
EXTT11=
EXTT12=
EXTT13=
PLAYORDER=
